<svg version="1.0" xmlns="http://www.w3.org/2000/svg" width="1024pt" height="1024pt" viewBox="0 0 1024 1024">
  <g fill="#2c3947">
    <path d="M513.1 216.7c9.6 18 19.9 32.4 30 41.9 5.3 4.9 5.6 5 14.4 6.3 41.2 6 79.9 19 117.5 39.5 25.4 13.9 40.5 21.5 51.5 25.9 14 5.6 26.6 10 27.1 9.4.3-.3-1.9-2.2-4.8-4.3-7.3-5.4-19.7-16.2-37-32.4-25.4-23.8-37.6-33.6-57.8-46.2-32.6-20.3-74.2-35.5-126.8-46.3-9.5-1.9-17.8-3.5-18.4-3.5-.5 0 1.4 4.4 4.3 9.7"/>
    <path d="M454 274.1c-7.4.5-15.3 1.3-17.4 1.7l-4 .7 17.5 17.6c24.4 24.5 40.3 37.4 67.8 54.7 38.7 24.3 72.1 34.4 131.6 39.7 9.9.9 21.7 2.5 26.3 3.5 10.6 2.5 18.5 5.9 17.8 7.6-1.7 4.5-14 22.6-18.6 27.3-6.8 7.1-12.2 10.6-22 14.2-13.9 5-32.6 5.5-53.4 1.4-17.4-3.5-49.6-12-73.6-19.5-53.9-16.8-93.9-18-134.6-3.9-21 7.2-34 14.9-63.4 37.4-28.1 21.6-59.2 31.4-89.5 28.5l-5-.5-2.3 6.9c-6.9 20.5-2.1 42.7 12.1 57 5.8 5.7 15.4 11.5 21.9 13.1l2.5.6.6-9.8c.3-5.4 1.2-12.5 1.9-15.7 1.2-5.5 1.1-6-.6-7-3.6-2.1-9.7-8-11.2-10.7-2.6-5.2-2.1-5.6 7.4-6.2 7.3-.4 19.9-3.3 27.6-6.3 1.6-.6 1.8-.4 1.1 1.2-.4 1-2.7 7.5-5.1 14.4-6.4 18.5-7.7 29.6-6.9 55.5.7 23.7.3 27.1-5.3 37.8-8.1 15.7-22.9 22.1-50.1 21.6l-13.3-.3-21.7 42.9c-11.9 23.7-23.6 46.2-25.9 50.2-4.1 7-9.4 12.4-24.1 24.5-14.6 12-22.1 30.2-22.1 53.4v9.7l11.3-.5c13.6-.6 22.8-3.5 32.9-10.4 13.9-9.4 20.5-18.7 33.9-47.5 4.3-9.3 12-25.1 17-35.1 7.9-15.6 10.1-19.2 15.4-24.4 11.5-11.6 21.6-15.1 47.4-16.4 29.8-1.6 45.3-4.1 64.8-10.6 42.4-14.1 79.6-45.6 96.9-81.9 10-21.1 13.9-39.3 13.2-61.7-.4-13.7-.4-13.9 1.4-11.6 2.9 3.6 8.4 15.8 9.8 21.3 2.3 9.9 1 27.5-2.9 37.7-1 2.6-.9 2.7 2.7 3.3 19.1 3.2 33.2 9.2 56.7 24 11.7 7.3 29.1 17.5 30.1 17.5.5 0 17.4-21.4 17.4-22.1 0-.3-3.7-2.6-8.2-5.1-20.2-11.3-33.7-21.8-40.5-31.9-1.7-2.5-7.3-12.1-12.3-21.5-10.9-20-15.8-27.2-25.9-37.7-17.4-18.2-38-26.7-64.4-26.7-11.6 0-29.7 2.4-29.7 3.9 0 .4 2.3 1.3 5 2 6.2 1.6 15.7 7.8 20.6 13.4 8 9.3 12.4 22.5 12.3 37.2 0 28.6-11.7 54.3-35.4 78.1-15.9 16-34.7 27.9-55.5 35.1-13.9 4.9-15.4 4.9-8 .2 8.1-5.1 22.4-19.6 26.8-27 6-10.3 10.2-25.3 10.2-37.1 0-25.1-13.2-49.4-33.4-61.2-3.7-2.2-6.9-4.3-7.2-4.8-.3-.4 1.2-4 3.2-7.8 11.7-21.6 34.9-43.7 58.4-55.5 46.5-23.4 109-18.6 155.5 12.1 39 25.6 60.1 59.9 58.2 94.4-1.3 22.8-9 39.1-32 68l-3.6 4.4 2.6 3.6c1.5 1.9 8.6 10.7 15.7 19.5 15.2 18.5 41.6 53.5 41.6 55 0 .5-6.2 3.4-13.7 6.4-16.4 6.4-16.9 6.3-31.5-1.3-12.7-6.6-21.2-8.4-30.9-6.7-12.6 2.2-23.7 9.6-31.6 21.2l-3.2 4.6 5.7 4.3c3.1 2.3 9.3 5.9 13.7 8 24.4 11.5 49.1 15.2 68.5 10.1 7-1.9 32.1-11 55.6-20.2 6.8-2.7 11.4-6.7 14.7-12.8 4.6-8.4 4.5-11.3-2.2-45.9-3.4-17.3-5.9-31.7-5.6-32.1.2-.5 3.3-1.8 6.7-3.1 11.4-4 36.1-16.6 46.8-23.8 18.9-12.6 36.4-29.5 49-47.2 3.7-5.2 11.1-18.1 16.3-28.5 10.6-20.9 15.4-27.4 24.9-33.5 9.1-6 16.3-7.4 32.6-6.7 11.2.5 14.9.3 20.3-1.1 14.4-3.8 26.6-14.7 34.7-31.1 4.4-8.7 4.7-10 4.7-17 0-9-1.8-13.2-10.5-25.1-8.7-11.6-35.2-41.3-42.3-47.2-18.9-15.7-33.9-21.7-60.7-24.3-18.5-1.8-24.7-2.8-36-6.1-19.6-5.6-31.4-11-84-38.2-37.9-19.5-73.5-30.4-119-36.3-19.1-2.4-68-3.4-91-1.8m78 28c24.6 2 48.5 6.2 69 12.1 18.7 5.3 38.8 13.7 73 30.3 53.9 26.2 67.7 30.6 106.3 34 17.6 1.6 25.1 3.1 32.2 6.7 6.7 3.5 15.2 9.6 21.9 15.8 9.4 8.8 39.6 44 39.6 46.2 0 .4-2.9.8-6.5 1l-6.5.3 2.4 5.1c1.3 2.8 3.7 6.6 5.4 8.6l3.1 3.5-3 4.1c-3 4.1-10.9 10-13.8 10.4-.9.1-10.6.3-21.6.3s-25.4.4-32.1.9c-13.7 1-19.1.2-29.1-4.5-13-6.1-22.1-16.3-25.9-28.9l-1.8-6h-16.7l.6 5.7c1.5 13.6 4.2 20.6 11.8 30.9 6.7 9.2 20.1 19.1 28.9 21.5l3.8 1-5.1 6.6c-2.8 3.6-8.3 13.2-12.4 21.2-4 8-10 18.7-13.2 23.7-5.6 8.4-18.1 23.9-18.8 23.2-.2-.2.4-3.2 1.2-6.8 2.3-10.6 2.1-28.9-.6-39-6.9-26.7-24.6-48.2-51.5-62.6l-5.8-3.1 5.7-2.7c14.5-6.6 24.1-16 38-37.1 6.1-9.2 11.7-16.4 16.5-20.9l7.2-7-2.4-1.8C726.2 390.4 713 382 707 379c-16.2-8.2-27.1-10.8-59.1-14.5-61.5-7.1-92.6-19.1-138.1-53.8-6.5-4.9-12.1-9.4-12.5-9.9-.6-1.2 9.9-.8 34.7 1.3m77.9 171.4c37.2 9.3 52.7 16.6 68.1 32.4 8.6 8.8 13 15.8 16.7 26.3 2.2 6.2 2.6 9.1 2.7 19.3.1 10.1-.3 13.1-2.2 18.9-9 26.8-29.9 45.3-61.3 54.1l-5.6 1.5 2.3 12.3c1.3 6.7 3.6 19.2 5.3 27.7 1.6 8.5 2.8 15.6 2.6 15.8s-3.1-3.4-6.6-8-12.3-15.8-19.6-25c-7.3-9.1-13.3-17.1-13.3-17.6 0-.6 2.4-4.6 5.4-8.9 10.4-15.1 17.3-31.7 20.2-48.8 2.4-13.2 1.4-33.8-2.1-47-4.7-18.1-15.9-38.2-29.2-52.5-3.6-4-5-6.1-3.8-5.7 1.1.3 10.3 2.7 20.4 5.2"/>
    <path d="M785.1 400.6c-10.4 1.9-11.1 2.2-8.6 4.1 1.1.8 4.1 2.5 6.7 3.8 4 2.1 4.7 3 5.3 6.3.9 5.5 4 10.1 8 11.8 4.6 1.9 7.3 1.8 12-.6 5-2.5 5.9-2.5 12.3.5 2.8 1.3 5.2 2.2 5.2 1.8 0-.3-2.2-5.2-5-10.8-8.3-17.2-15.5-20.6-35.9-16.9M451 600.8c-15.2 28.2-40.2 54-66.6 68.8-5.4 3-6.8 4.4-9.8 9.8-1.9 3.5-6.5 10.4-10.1 15.4s-6.5 9.3-6.5 9.6c0 .2 8.7 6.4 19.3 13.7 45.4 31.2 81.9 58.8 121.7 91.8l8.5 7 40.3.1c46.6 0 42.7 1.3 36-12.1-7-14.1-18.6-23.8-32.9-27.5-5.1-1.3-8.7-1.5-17.7-.9l-11.4.7-5.6-3.8c-6.9-4.5-54.9-40.9-67.6-51.2-12.9-10.4-14.1-12.1-14.1-20.4 0-6 .3-7 3-9.8 1.7-1.7 5.9-4.8 9.5-6.7 25.7-14.2 41.4-26.8 53.8-43.2 6.8-9.1 14.8-23.9 13.5-25.2-.5-.5-6-3.8-12.2-7.3-14.6-8.4-27.4-13-43.8-16-3.1-.5-3.3-.3-7.3 7.2M749.5 609.1c-10.1 10.4-29.2 24.1-46.6 33.3l-10.2 5.4 5.4.6c3 .3 23.9 1.2 46.4 2.1 22.6.9 45.1 2 50.2 2.5 16.6 1.8 23.9 6 36.5 21.2 4.5 5.5 9.7 11.2 11.7 12.7 12.9 10 28.3 14.2 42.8 11.7 8-1.4 18.3-5.2 18.3-6.7 0-1.8-5-12.1-8.1-16.6-14.4-21.1-50.3-46-78.9-54.7-7.6-2.3-61.3-15.6-62.9-15.6-.4 0-2.5 1.8-4.6 4.1"/>
  </g>
</svg>
